<svg xmlns="http://www.w3.org/2000/svg" viewBox="0 0 42.75 32.26"><defs><style>.cls-1{fill:#267ba0;fill-rule:evenodd;}</style></defs><g id="Layer_2" data-name="Layer 2"><g id="svg1139"><g id="layer1"><path id="rect6094-5-9" class="cls-1" d="M21.37,0A17.81,17.81,0,0,0,5.27,10.14a3.44,3.44,0,0,0-.45-.05A4.81,4.81,0,0,0,0,14.91v6a4.81,4.81,0,0,0,4.82,4.82c.15,0,.3,0,.45-.05.19.4.39.79.61,1.18A1.33,1.33,0,1,0,8.19,25.5a15.23,15.23,0,1,1,26.37,0l0,.07,0,.06s-1.79,4-5.32,4l-4.47,0a2.24,2.24,0,0,0-1.88-1H19.94a2.33,2.33,0,0,0-2.33,2.33c0,.8.5,1.4,1.66,1.4h9.9c5.29,0,7.58-5.19,7.69-5.43v0c.22-.38.42-.78.61-1.17.15,0,.3,0,.46,0a4.81,4.81,0,0,0,4.82-4.82V14.91a4.81,4.81,0,0,0-4.82-4.82,3.42,3.42,0,0,0-.45,0A17.83,17.83,0,0,0,21.37,0ZM15.56,8.47a3.27,3.27,0,0,0-2.81,1,12.89,12.89,0,0,0-3.57,8.85c0,2.78.92,5.9,2.49,6,2.23.16,5.75-1.3,9.71-1.3,4.19,0,7.9,1.64,10.09,1.25,1.33-.23,2.11-3.41,2.11-6A12.93,12.93,0,0,0,30,9.5c-2.21-2.33-5.26,0-8.63,0C19.27,9.5,17.29,8.59,15.56,8.47Zm-.49,5.73a2.23,2.23,0,1,1-2.23,2.23A2.23,2.23,0,0,1,15.07,14.2Zm12.62,0a2.23,2.23,0,1,1-2.23,2.23A2.23,2.23,0,0,1,27.69,14.2Z"/></g></g></g></svg>